HIERARCHY
ROOT hip
{
  OFFSET 0 0 0
  CHANNELS 6 Xposition Yposition Zposition Zrotation Yrotation Xrotation
  JOINT abdomen
  {
    OFFSET 0 20.6881 -0.73152
    CHANNELS 3 Zrotation Xrotation Yrotation
    JOINT chest
    {
      OFFSET 0 11.7043 -0.48768
      CHANNELS 3 Zrotation Xrotation Yrotation
      JOINT neck
      {
        OFFSET 0 22.1894 -2.19456
        CHANNELS 3 Zrotation Xrotation Yrotation
        JOINT head
        {
          OFFSET -0.24384 7.07133 1.2192
          CHANNELS 3 Zrotation Xrotation Yrotation
          JOINT leftEye
          {
            OFFSET 4.14528 8.04674 8.04672
            CHANNELS 3 Zrotation Xrotation Yrotation
            End Site
            {
              OFFSET 1 0 0
            }
          }
          JOINT rightEye
          {
            OFFSET -3.6576 8.04674 8.04672
            CHANNELS 3 Zrotation Xrotation Yrotation
            End Site
            {
              OFFSET 1 0 0
            }
          }
        }
      }
      JOINT rCollar
      {
        OFFSET -2.68224 19.2634 -4.8768
        CHANNELS 3 Zrotation Xrotation Yrotation
        JOINT rShldr
        {
          OFFSET -8.77824 -1.95073 1.46304
          CHANNELS 3 Zrotation Xrotation Yrotation
          JOINT rForeArm
          {
            OFFSET -28.1742 -1.7115 0.48768
            CHANNELS 3 Zrotation Xrotation Yrotation
            JOINT rHand
            {
              OFFSET -22.5879 0.773209 7.07136
              CHANNELS 3 Zrotation Xrotation Yrotation
              JOINT rThumb1
              {
                OFFSET -1.2192 -0.487915 3.41376
                CHANNELS 3 Zrotation Xrotation Yrotation
                JOINT rThumb2
                {
                  OFFSET -3.37035 -0.52449 3.41376
                  CHANNELS 3 Zrotation Xrotation Yrotation
                  End Site
                  {
                    OFFSET -1.78271 -1.18214 1.43049
                  }
                }
              }
              JOINT rIndex1
              {
                OFFSET -7.75947 0.938293 5.60832
                CHANNELS 3 Zrotation Xrotation Yrotation
                JOINT rIndex2
                {
                  OFFSET -2.54057 -0.884171 1.56538
                  CHANNELS 3 Zrotation Xrotation Yrotation
                  End Site
                  {
                    OFFSET -1.62519 -0.234802 1.16502
                  }
                }
              }
              JOINT rMid1
              {
                OFFSET -8.24714 1.18213 3.41376
                CHANNELS 3 Zrotation Xrotation Yrotation
                JOINT rMid2
                {
                  OFFSET -3.10165 -0.590103 1.0647
                  CHANNELS 3 Zrotation Xrotation Yrotation
                  End Site
                  {
                    OFFSET -2.48547 -0.328903 0.83742
                  }
                }
              }
              JOINT rRing1
              {
                OFFSET -8.82822 0.546677 1.51678
                CHANNELS 3 Zrotation Xrotation Yrotation
                JOINT rRing2
                {
                  OFFSET -2.60934 -0.819778 -0.0198488
                  CHANNELS 3 Zrotation Xrotation Yrotation
                  End Site
                  {
                    OFFSET -2.33842 -0.294052 0.168128
                  }
                }
              }
              JOINT rPinky1
              {
                OFFSET -8.27202 -0.0477905 -0.4584
                CHANNELS 3 Zrotation Xrotation Yrotation
                JOINT rPinky2
                {
                  OFFSET -1.82734 -0.647385 -0.700984
                  CHANNELS 3 Zrotation Xrotation Yrotation
                  End Site
                  {
                    OFFSET -1.69225 -0.51767 -0.607171
                  }
                }
              }
            }
          }
        }
      }
      JOINT lCollar
      {
        OFFSET 2.68224 19.2634 -4.8768
        CHANNELS 3 Zrotation Xrotation Yrotation
        JOINT lShldr
        {
          OFFSET 8.77824 -1.95073 1.46304
          CHANNELS 3 Zrotation Xrotation Yrotation
          JOINT lForeArm
          {
            OFFSET 28.1742 -1.7115 0.48768
            CHANNELS 3 Zrotation Xrotation Yrotation
            JOINT lHand
            {
              OFFSET 22.5879 0.773209 7.07136
              CHANNELS 3 Zrotation Xrotation Yrotation
              JOINT lThumb1
              {
                OFFSET 1.2192 -0.487915 3.41376
                CHANNELS 3 Zrotation Xrotation Yrotation
                JOINT lThumb2
                {
                  OFFSET 3.37035 -0.52449 3.41376
                  CHANNELS 3 Zrotation Xrotation Yrotation
                  End Site
                  {
                    OFFSET 1.78271 -1.18214 1.43049
                  }
                }
              }
              JOINT lIndex1
              {
                OFFSET 7.75947 0.938293 5.60832
                CHANNELS 3 Zrotation Xrotation Yrotation
                JOINT lIndex2
                {
                  OFFSET 2.54057 -0.884171 1.56538
                  CHANNELS 3 Zrotation Xrotation Yrotation
                  End Site
                  {
                    OFFSET 1.62519 -0.234802 1.16502
                  }
                }
              }
              JOINT lMid1
              {
                OFFSET 8.24714 1.18213 3.41376
                CHANNELS 3 Zrotation Xrotation Yrotation
                JOINT lMid2
                {
                  OFFSET 3.10165 -0.590103 1.0647
                  CHANNELS 3 Zrotation Xrotation Yrotation
                  End Site
                  {
                    OFFSET 2.48547 -0.328903 0.83742
                  }
                }
              }
              JOINT lRing1
              {
                OFFSET 8.82822 0.546677 1.51678
                CHANNELS 3 Zrotation Xrotation Yrotation
                JOINT lRing2
                {
                  OFFSET 2.60934 -0.819778 -0.0198488
                  CHANNELS 3 Zrotation Xrotation Yrotation
                  End Site
                  {
                    OFFSET 2.33842 -0.294052 0.168128
                  }
                }
              }
              JOINT lPinky1
              {
                OFFSET 8.27202 -0.0477905 -0.4584
                CHANNELS 3 Zrotation Xrotation Yrotation
                JOINT lPinky2
                {
                  OFFSET 1.82734 -0.647385 -0.700984
                  CHANNELS 3 Zrotation Xrotation Yrotation
                  End Site
                  {
                    OFFSET 1.69225 -0.51767 -0.607171
                  }
                }
              }
            }
          }
        }
      }
    }
  }
  JOINT rButtock
  {
    OFFSET -8.77824 4.35084 1.2192
    CHANNELS 3 Zrotation Xrotation Yrotation
    JOINT rThigh
    {
      OFFSET 0 -1.70687 -2.19456
      CHANNELS 3 Zrotation Xrotation Yrotation
      JOINT rShin
      {
        OFFSET 0 -36.8199 0.73152
        CHANNELS 3 Zrotation Xrotation Yrotation
        JOINT rFoot
        {
          OFFSET 0.73152 -45.1104 -5.12064
          CHANNELS 3 Zrotation Xrotation Yrotation
          End Site
          {
            OFFSET -1.1221 -3.69964 12.103
          }
        }
      }
    }
  }
  JOINT lButtock
  {
    OFFSET 8.77824 4.35084 1.2192
    CHANNELS 3 Zrotation Xrotation Yrotation
    JOINT lThigh
    {
      OFFSET 0 -1.70687 -2.19456
      CHANNELS 3 Zrotation Xrotation Yrotation
      JOINT lShin
      {
        OFFSET 0 -36.8199 0.73152
        CHANNELS 3 Zrotation Xrotation Yrotation
        JOINT lFoot
        {
          OFFSET -0.73152 -45.1104 -5.12064
          CHANNELS 3 Zrotation Xrotation Yrotation
          End Site
          {
            OFFSET 1.1221 -3.69964 12.103
          }
        }
      }
    }
  }
}
MOTION
Frames:	4
Frame Time:	0.00833333
181.26 83.185 10.1674 0.0 0.0 0.0 -3.13121 0.00208551 -0.0845033 -0.863231 0.0181967 -0.149332 4.59647e-14 7.95139e-16 -3.97569e-16 1.38395e-13 9.54166e-15 -9.48886e-16 -0.0 0.0 0.0 -0.0 0.0 0.0 2.37071e-14 4.42995e-16 9.93923e-17 4.88563e-13 9.6659e-15 -9.93923e-16 8.3994e-12 -2.18047e-12 -1.68569e-13 9.57884e-11 4.18459e-12 -5.02528e-13 2.26007e-10 4.33891e-12 -1.46942e-12 3.90291e-10 7.49339e-12 -2.55001e-12 2.2601e-10 4.34026e-12 -1.47578e-12 7.73091 5.47488 0.417314 2.26007e-10 4.33867e-12 -1.46942e-12 2.90554 0.965183 0.102902 2.26014e-10 4.33877e-12 -1.47101e-12 10.2786 0.731801 0.0259123 2.26005e-10 4.33987e-12 -1.46306e-12 2.22167 -0.733487 -0.20892 2.35058e-14 4.50566e-16 -2.98177e-16 4.85367e-13 9.24349e-15 -2.18663e-15 8.34359e-12 2.82115e-12 -8.90555e-14 9.58144e-11 -8.36237e-13 -5.50236e-13 2.25952e-10 4.30511e-12 -1.43125e-12 3.90217e-10 7.43614e-12 -2.47924e-12 2.25946e-10 4.30766e-12 -1.41535e-12 -7.73091 5.47488 -0.417314 2.25954e-10 4.30468e-12 -1.43761e-12 -2.90554 0.965183 -0.102902 2.25948e-10 4.30528e-12 -1.43443e-12 -10.2786 0.731801 -0.0259123 2.25954e-10 4.30687e-12 -1.44397e-12 -2.22167 -0.733487 0.20892 -2.03217e-16 0.0 -3.88251e-19 -1.91861 -1.93503 0.0146216 -0.00850195 -2.07867 -0.0697728 -0.458849 4.00011 0.132486 2.03217e-16 0.0 3.88251e-19 -2.83804 -9.32628 0.322341 -0.00902608 11.3079 -0.235091 0.527157 -1.99511 -0.0183419
174.347 82.0845 2.3399 173.046 -71.0702 -175.44 -4.42503 2.53564 -0.150016 0.330452 1.62216 -0.332018 -4.43074 5.74587 -1.91053 10.7816 -12.4509 -0.345121 -0.0 0.0 0.0 -0.0 0.0 0.0 -1.13067e-14 5.18743e-14 9.1425e-14 22.6574 3.71337 1.81202 -4.4588 -2.07582 6.90934 0.0132875 2.55779 0.358181 -2.22429e-10 -1.37328e-09 2.8431e-10 -3.82635e-10 -2.38088e-09 4.9589e-10 -2.22425e-10 -1.37328e-09 2.84309e-10 7.73091 5.47488 0.417314 -2.22429e-10 -1.37329e-09 2.84311e-10 2.90554 0.965183 0.102902 -2.22421e-10 -1.37329e-09 2.84311e-10 10.2786 0.731801 0.0259123 -2.22432e-10 -1.37328e-09 2.84322e-10 2.22167 -0.733487 -0.20892 -1.14806e-14 5.18849e-14 9.11148e-14 -24.3112 4.25779 -2.46586 2.753 -1.05514 -4.48916 -0.00756548 1.93029 -0.270729 -8.36012e-11 1.58928e-10 3.57779e-10 -1.42223e-10 2.75243e-10 6.20914e-10 -8.36064e-11 1.5893e-10 3.57793e-10 -7.73091 5.47488 -0.417314 -8.36004e-11 1.58927e-10 3.57774e-10 -2.90554 0.965183 -0.102902 -8.36059e-11 1.58928e-10 3.57776e-10 -10.2786 0.731801 -0.0259123 -8.35974e-11 1.5893e-10 3.57768e-10 -2.22167 -0.733487 0.20892 -2.03217e-16 0.0 -3.88251e-19 -3.07654 -5.04192 0.905289 0.0342648 7.97936 0.129232 -1.36584 -1.35317 -6.19694 2.03217e-16 0.0 3.88251e-19 -2.52458 -10.078 1.19023 -0.018853 18.5438 -0.371641 1.57373 -7.50162 5.37987
174.344 82.0853 2.36271 172.828 -71.1459 -175.216 -5.78268 5.21229 -0.221803 1.60625 3.30838 -0.525818 -8.69287 11.8169 -4.00338 22.0066 -25.6192 -0.785654 -0.0 0.0 0.0 -0.0 0.0 0.0 -4.7696e-14 1.08812e-13 1.85333e-13 46.3485 7.63458 3.7407 -8.63536 -4.17192 14.2472 -0.00755986 5.25624 0.738485 -6.83701e-10 -2.81969e-09 5.69002e-10 -1.17778e-09 -4.8884e-09 9.92578e-10 -6.83696e-10 -2.81969e-09 5.69007e-10 7.73091 5.47488 0.417314 -6.83701e-10 -2.81969e-09 5.69005e-10 2.90554 0.965183 0.102902 -6.83692e-10 -2.81969e-09 5.69007e-10 10.2786 0.731801 0.0259123 -6.83705e-10 -2.81969e-09 5.6902e-10 2.22167 -0.733487 -0.20892 -4.78419e-14 1.08825e-13 1.85118e-13 -49.615 8.72525 -5.10465 5.48206 -2.14786 -9.23633 0.00430554 3.96464 -0.557096 -4.17517e-10 3.23182e-10 7.67441e-10 -7.16421e-10 5.59746e-10 1.3317e-09 -4.17521e-10 3.23183e-10 7.67452e-10 -7.73091 5.47488 -0.417314 -4.17518e-10 3.2318e-10 7.67436e-10 -2.90554 0.965183 -0.102902 -4.17522e-10 3.23182e-10 7.67438e-10 -10.2786 0.731801 -0.0259123 -4.17511e-10 3.23185e-10 7.67432e-10 -2.22167 -0.733487 0.20892 -2.03217e-16 0.0 -3.88251e-19 -4.18979 -8.3209 1.86609 0.000236393 18.6091 0.355585 -3.60778 -6.84823 -12.984 2.03217e-16 0.0 3.88251e-19 -2.16685 -10.8689 2.1091 0.0130421 26.1938 -0.536201 3.83027 -13.1419 11.2932
174.347 82.0845 2.37148 172.825 -71.2421 -175.195 -6.99512 7.60269 -0.28309 2.74861 4.82982 -0.699476 -12.0993 17.1591 -5.96938 31.7965 -37.3467 -1.27178 -0.0 0.0 0.0 -0.0 0.0 0.0 -8.13342e-14 1.54737e-13 2.74076e-13 67.2572 11.0951 5.52827 -11.9043 -5.866 20.8284 -0.0568086 7.67217 1.08317 -1.1193e-09 -4.12853e-09 8.55868e-10 -1.92849e-09 -7.15763e-09 1.49277e-09 -1.11929e-09 -4.12853e-09 8.55878e-10 7.73091 5.47488 0.417314 -1.1193e-09 -4.12853e-09 8.55873e-10 2.90554 0.965183 0.102902 -1.11929e-09 -4.12853e-09 8.55876e-10 10.2786 0.731801 0.0259123 -1.11931e-09 -4.12853e-09 8.55891e-10 2.22167 -0.733487 -0.20892 -8.14533e-14 1.54754e-13 2.73941e-13 -71.8141 12.6776 -7.56256 7.76743 -3.0878 -13.4851 0.0322655 5.79034 -0.815889 -7.02708e-10 4.68174e-10 1.0762e-09 -1.2071e-09 8.10856e-10 1.8677e-09 -7.02712e-10 4.68175e-10 1.07621e-09 -7.73091 5.47488 -0.417314 -7.0271e-10 4.68171e-10 1.0762e-09 -2.90554 0.965183 -0.102902 -7.02713e-10 4.68174e-10 1.0762e-09 -10.2786 0.731801 -0.0259123 -7.02701e-10 4.68177e-10 1.07619e-09 -2.22167 -0.733487 0.20892 -2.03217e-16 0.0 -3.88251e-19 -5.09763 -11.2452 2.72855 -0.110853 28.0942 0.593305 -6.71428 -11.4265 -19.246 2.03217e-16 0.0 3.88251e-19 -1.82796 -11.5727 2.93923 0.0863699 33.0144 -0.710748 6.86819 -17.8637 16.8738
